<svg xmlns="http://www.w3.org/2000/svg" viewBox="0 0 512 512" fill="none" role="img" aria-label="Bootsurf logo proposal v2">
  <defs>
    <linearGradient id="v2-border" x1="56" y1="56" x2="456" y2="456" gradientUnits="userSpaceOnUse">
      <stop stop-color="#2DD4BF"/>
      <stop offset="1" stop-color="#22D3EE"/>
    </linearGradient>
    <linearGradient id="v2-wave" x1="100" y1="200" x2="340" y2="360" gradientUnits="userSpaceOnUse">
      <stop stop-color="#2DD4BF"/>
      <stop offset="0.4" stop-color="#FFFFFF"/>
      <stop offset="1" stop-color="#22D3EE"/>
    </linearGradient>
  </defs>

  <rect x="48" y="48" width="416" height="416" rx="88" fill="#0B1F3A"/>
  <rect x="48" y="48" width="416" height="416" rx="88" stroke="url(#v2-border)" stroke-width="9"/>

  <path
    d="M136 132 L148 156 L172 168 L148 180 L136 204 L124 180 L100 168 L124 156 Z"
    fill="url(#v2-border)"
  />

  <path
    d="M148 128 L148 340 M148 128 C220 128 260 168 260 220 C260 272 220 312 148 312 C196 312 232 288 248 256"
    stroke="url(#v2-wave)"
    stroke-width="28"
    stroke-linecap="round"
    stroke-linejoin="round"
    fill="none"
  />

  <path
    d="M96 372 C188 316 276 316 368 356"
    stroke="url(#v2-wave)"
    stroke-width="26"
    stroke-linecap="round"
    fill="none"
  />
  <path
    d="M112 400 C196 360 280 360 364 384"
    stroke="#2DD4BF"
    stroke-width="12"
    stroke-linecap="round"
    fill="none"
    opacity="0.5"
  />

  <path d="M360 156 L320 256 L360 356" stroke="#2DD4BF" stroke-width="24" stroke-linecap="round" stroke-linejoin="round"/>
  <path d="M392 176 L364 256 L392 336" stroke="#22D3EE" stroke-width="13" stroke-linecap="round" stroke-linejoin="round" opacity="0.85"/>
</svg>
